<svg id="visual" viewBox="0 0 900 600" width="900" height="600" xmlns="http://www.w3.org/2000/svg" xmlns:xlink="http://www.w3.org/1999/xlink" version="1.1"><rect x="0" y="0" width="900" height="600" fill="#14542d"></rect><defs><linearGradient id="grad1_0" x1="33.3%" y1="0%" x2="100%" y2="100%"><stop offset="20%" stop-color="#15803d" stop-opacity="1"></stop><stop offset="80%" stop-color="#15803d" stop-opacity="1"></stop></linearGradient></defs><defs><linearGradient id="grad1_1" x1="33.3%" y1="0%" x2="100%" y2="100%"><stop offset="20%" stop-color="#15803d" stop-opacity="1"></stop><stop offset="80%" stop-color="#157539" stop-opacity="1"></stop></linearGradient></defs><defs><linearGradient id="grad1_2" x1="33.3%" y1="0%" x2="100%" y2="100%"><stop offset="20%" stop-color="#146a35" stop-opacity="1"></stop><stop offset="80%" stop-color="#157539" stop-opacity="1"></stop></linearGradient></defs><defs><linearGradient id="grad1_3" x1="33.3%" y1="0%" x2="100%" y2="100%"><stop offset="20%" stop-color="#146a35" stop-opacity="1"></stop><stop offset="80%" stop-color="#145f31" stop-opacity="1"></stop></linearGradient></defs><defs><linearGradient id="grad1_4" x1="33.3%" y1="0%" x2="100%" y2="100%"><stop offset="20%" stop-color="#14542d" stop-opacity="1"></stop><stop offset="80%" stop-color="#145f31" stop-opacity="1"></stop></linearGradient></defs><defs><linearGradient id="grad2_0" x1="0%" y1="0%" x2="66.7%" y2="100%"><stop offset="20%" stop-color="#15803d" stop-opacity="1"></stop><stop offset="80%" stop-color="#15803d" stop-opacity="1"></stop></linearGradient></defs><defs><linearGradient id="grad2_1" x1="0%" y1="0%" x2="66.7%" y2="100%"><stop offset="20%" stop-color="#157539" stop-opacity="1"></stop><stop offset="80%" stop-color="#15803d" stop-opacity="1"></stop></linearGradient></defs><defs><linearGradient id="grad2_2" x1="0%" y1="0%" x2="66.7%" y2="100%"><stop offset="20%" stop-color="#157539" stop-opacity="1"></stop><stop offset="80%" stop-color="#146a35" stop-opacity="1"></stop></linearGradient></defs><defs><linearGradient id="grad2_3" x1="0%" y1="0%" x2="66.7%" y2="100%"><stop offset="20%" stop-color="#145f31" stop-opacity="1"></stop><stop offset="80%" stop-color="#146a35" stop-opacity="1"></stop></linearGradient></defs><defs><linearGradient id="grad2_4" x1="0%" y1="0%" x2="66.7%" y2="100%"><stop offset="20%" stop-color="#145f31" stop-opacity="1"></stop><stop offset="80%" stop-color="#14542d" stop-opacity="1"></stop></linearGradient></defs><g transform="translate(900, 0)"><path d="M0 459.7C-90.8 453.7 -181.5 447.6 -229.9 398.1C-278.2 348.6 -284 255.6 -315.2 182C-346.5 108.4 -403.1 54.2 -459.7 0L0 0Z" fill="#14592f"></path><path d="M0 367.8C-72.6 362.9 -145.2 358.1 -183.9 318.5C-222.5 278.9 -227.2 204.5 -252.2 145.6C-277.2 86.7 -322.5 43.4 -367.8 0L0 0Z" fill="#146433"></path><path d="M0 275.8C-54.5 272.2 -108.9 268.6 -137.9 238.9C-166.9 209.2 -170.4 153.4 -189.1 109.2C-207.9 65 -241.9 32.5 -275.8 0L0 0Z" fill="#146f37"></path><path d="M0 183.9C-36.3 181.5 -72.6 179.1 -91.9 159.2C-111.3 139.4 -113.6 102.2 -126.1 72.8C-138.6 43.4 -161.2 21.7 -183.9 0L0 0Z" fill="#157a3b"></path><path d="M0 91.9C-18.2 90.7 -36.3 89.5 -46 79.6C-55.6 69.7 -56.8 51.1 -63 36.4C-69.3 21.7 -80.6 10.8 -91.9 0L0 0Z" fill="#15803d"></path></g><g transform="translate(0, 600)"><path d="M0 -459.7C99.8 -458.9 199.6 -458 229.9 -398.1C260.1 -338.2 221 -219.2 247.7 -143C274.4 -66.8 367.1 -33.4 459.7 0L0 0Z" fill="#14592f"></path><path d="M0 -367.8C79.8 -367.1 159.6 -366.4 183.9 -318.5C208.1 -270.6 176.8 -175.4 198.1 -114.4C219.5 -53.4 293.6 -26.7 367.8 0L0 0Z" fill="#146433"></path><path d="M0 -275.8C59.9 -275.3 119.7 -274.8 137.9 -238.9C156.1 -202.9 132.6 -131.5 148.6 -85.8C164.6 -40.1 220.2 -20 275.8 0L0 0Z" fill="#146f37"></path><path d="M0 -183.9C39.9 -183.5 79.8 -183.2 91.9 -159.2C104.1 -135.3 88.4 -87.7 99.1 -57.2C109.8 -26.7 146.8 -13.4 183.9 0L0 0Z" fill="#157a3b"></path><path d="M0 -91.9C20 -91.8 39.9 -91.6 46 -79.6C52 -67.6 44.2 -43.8 49.5 -28.6C54.9 -13.4 73.4 -6.7 91.9 0L0 0Z" fill="#15803d"></path></g></svg>