<svg id="visual" viewBox="0 0 675 900" width="675" height="900" xmlns="http://www.w3.org/2000/svg" xmlns:xlink="http://www.w3.org/1999/xlink" version="1.1"><rect x="0" y="0" width="675" height="900" fill="#052e16"></rect><path d="M0 393L12.5 393.2C25 393.3 50 393.7 75 375.8C100 358 125 322 150 319.8C175 317.7 200 349.3 225 366.7C250 384 275 387 300 379.3C325 371.7 350 353.3 375 344.3C400 335.3 425 335.7 450 344.8C475 354 500 372 525 370.8C550 369.7 575 349.3 600 333.7C625 318 650 307 662.5 301.5L675 296L675 901L662.5 901C650 901 625 901 600 901C575 901 550 901 525 901C500 901 475 901 450 901C425 901 400 901 375 901C350 901 325 901 300 901C275 901 250 901 225 901C200 901 175 901 150 901C125 901 100 901 75 901C50 901 25 901 12.5 901L0 901Z" fill="#14532d"></path><path d="M0 486L12.5 476.5C25 467 50 448 75 439C100 430 125 431 150 436.8C175 442.7 200 453.3 225 458.5C250 463.7 275 463.3 300 455.5C325 447.7 350 432.3 375 439C400 445.7 425 474.3 450 471.8C475 469.3 500 435.7 525 416.5C550 397.3 575 392.7 600 400.8C625 409 650 430 662.5 440.5L675 451L675 901L662.5 901C650 901 625 901 600 901C575 901 550 901 525 901C500 901 475 901 450 901C425 901 400 901 375 901C350 901 325 901 300 901C275 901 250 901 225 901C200 901 175 901 150 901C125 901 100 901 75 901C50 901 25 901 12.5 901L0 901Z" fill="#166837"></path><path d="M0 525L12.5 524.8C25 524.7 50 524.3 75 529.7C100 535 125 546 150 554.7C175 563.3 200 569.7 225 573.8C250 578 275 580 300 577.3C325 574.7 350 567.3 375 553C400 538.7 425 517.3 450 516.2C475 515 500 534 525 538.8C550 543.7 575 534.3 600 532.5C625 530.7 650 536.3 662.5 539.2L675 542L675 901L662.5 901C650 901 625 901 600 901C575 901 550 901 525 901C500 901 475 901 450 901C425 901 400 901 375 901C350 901 325 901 300 901C275 901 250 901 225 901C200 901 175 901 150 901C125 901 100 901 75 901C50 901 25 901 12.5 901L0 901Z" fill="#187f41"></path><path d="M0 632L12.5 631.5C25 631 50 630 75 618.2C100 606.3 125 583.7 150 571.8C175 560 200 559 225 571.2C250 583.3 275 608.7 300 617.7C325 626.7 350 619.3 375 608C400 596.7 425 581.3 450 587C475 592.7 500 619.3 525 633.8C550 648.3 575 650.7 600 646C625 641.3 650 629.7 662.5 623.8L675 618L675 901L662.5 901C650 901 625 901 600 901C575 901 550 901 525 901C500 901 475 901 450 901C425 901 400 901 375 901C350 901 325 901 300 901C275 901 250 901 225 901C200 901 175 901 150 901C125 901 100 901 75 901C50 901 25 901 12.5 901L0 901Z" fill="#1a964b"></path><path d="M0 655L12.5 656.7C25 658.3 50 661.7 75 667.3C100 673 125 681 150 684C175 687 200 685 225 688.3C250 691.7 275 700.3 300 699.8C325 699.3 350 689.7 375 681.5C400 673.3 425 666.7 450 671.7C475 676.7 500 693.3 525 704.8C550 716.3 575 722.7 600 723.2C625 723.7 650 718.3 662.5 715.7L675 713L675 901L662.5 901C650 901 625 901 600 901C575 901 550 901 525 901C500 901 475 901 450 901C425 901 400 901 375 901C350 901 325 901 300 901C275 901 250 901 225 901C200 901 175 901 150 901C125 901 100 901 75 901C50 901 25 901 12.5 901L0 901Z" fill="#1dad55"></path><path d="M0 757L12.5 760.8C25 764.7 50 772.3 75 776.5C100 780.7 125 781.3 150 783.7C175 786 200 790 225 795.3C250 800.7 275 807.3 300 810.2C325 813 350 812 375 805C400 798 425 785 450 782.7C475 780.3 500 788.7 525 786.8C550 785 575 773 600 768.3C625 763.7 650 766.3 662.5 767.7L675 769L675 901L662.5 901C650 901 625 901 600 901C575 901 550 901 525 901C500 901 475 901 450 901C425 901 400 901 375 901C350 901 325 901 300 901C275 901 250 901 225 901C200 901 175 901 150 901C125 901 100 901 75 901C50 901 25 901 12.5 901L0 901Z" fill="#22c55e"></path></svg>